<?xml version="1.0" standalone="no"?>
<!DOCTYPE svg PUBLIC "-//W3C//DTD SVG 20010904//EN"
 "http://www.w3.org/TR/2001/REC-SVG-20010904/DTD/svg10.dtd">
<svg version="1.0" xmlns="http://www.w3.org/2000/svg"
 width="177.000000pt" height="110.000000pt" viewBox="0 0 177.000000 110.000000"
 preserveAspectRatio="xMidYMid meet">

<g transform="translate(0.000000,110.000000) scale(0.100000,-0.100000)"
fill="#000000" stroke="none">
<path d="M345 1034 c-52 -19 -190 -155 -218 -214 -21 -43 -22 -59 -22 -310 l0
-265 27 -51 c58 -110 130 -140 319 -132 142 6 178 21 275 115 87 84 106 118
112 205 6 93 1 98 -107 98 l-87 0 -49 -50 c-49 -49 -50 -50 -112 -50 l-63 0 0
180 0 180 39 0 c60 0 71 -7 71 -49 0 -54 12 -61 110 -61 l86 0 57 58 c57 57
57 58 57 117 -1 101 -49 177 -140 219 -60 27 -292 34 -355 10z m337 -43 c24
-11 55 -31 69 -45 35 -33 61 -103 57 -152 l-3 -39 -77 -3 -78 -3 0 40 c0 60
-23 71 -142 71 -134 0 -128 13 -128 -263 0 -131 4 -226 10 -238 10 -17 22 -19
124 -19 127 0 133 3 138 65 l3 40 54 3 c86 5 101 -2 101 -46 0 -88 -39 -155
-114 -195 -37 -20 -56 -22 -187 -22 -141 0 -147 1 -186 27 -26 17 -50 45 -67
79 -26 53 -26 53 -26 305 0 225 2 257 19 296 20 46 48 76 96 101 47 25 279 24
337 -2z m-505 -308 c-2 -16 -4 -3 -4 27 0 30 2 43 4 28 2 -16 2 -40 0 -55z
m-38 -133 l-6 -105 0 140 c0 77 2 124 6 105 4 -19 4 -82 0 -140z m38 -137 c-1
-43 -3 -10 -3 72 0 83 2 118 3 78 2 -40 2 -107 0 -150z m-40 -40 c-3 -10 -5
-4 -5 12 0 17 2 24 5 18 2 -7 2 -21 0 -30z"/>
<path d="M370 980 c0 -6 57 -10 151 -10 97 0 148 4 144 10 -4 6 -65 10 -151
10 -89 0 -144 -4 -144 -10z"/>
<path d="M290 920 c0 -6 84 -10 231 -10 151 0 228 3 224 10 -4 6 -92 10 -231
10 -143 0 -224 -4 -224 -10z"/>
<path d="M260 860 c0 -6 27 -10 60 -10 33 0 60 4 60 10 0 6 -27 10 -60 10 -33
0 -60 -4 -60 -10z"/>
<path d="M650 860 c0 -6 28 -10 65 -10 37 0 65 4 65 10 0 6 -28 10 -65 10 -37
0 -65 -4 -65 -10z"/>
<path d="M260 800 c0 -5 23 -10 50 -10 28 0 50 5 50 10 0 6 -22 10 -50 10 -27
0 -50 -4 -50 -10z"/>
<path d="M670 800 c0 -5 25 -10 55 -10 30 0 55 5 55 10 0 6 -25 10 -55 10 -30
0 -55 -4 -55 -10z"/>
<path d="M255 740 c3 -5 26 -10 50 -10 24 0 47 5 50 10 4 6 -15 10 -50 10 -35
0 -54 -4 -50 -10z"/>
<path d="M260 685 c0 -13 9 -16 48 -13 26 2 47 8 47 13 0 6 -21 11 -47 13 -39
3 -48 0 -48 -13z"/>
<path d="M255 630 c-4 -6 15 -10 50 -10 35 0 54 4 50 10 -3 6 -26 10 -50 10
-24 0 -47 -4 -50 -10z"/>
<path d="M260 570 c0 -5 23 -10 50 -10 28 0 50 5 50 10 0 6 -22 10 -50 10 -27
0 -50 -4 -50 -10z"/>
<path d="M260 510 c0 -5 23 -10 50 -10 28 0 50 5 50 10 0 6 -22 10 -50 10 -27
0 -50 -4 -50 -10z"/>
<path d="M255 450 c3 -5 26 -10 50 -10 24 0 47 5 50 10 4 6 -15 10 -50 10 -35
0 -54 -4 -50 -10z"/>
<path d="M260 395 c0 -13 9 -16 48 -13 26 2 47 8 47 13 0 6 -21 11 -47 13 -39
3 -48 0 -48 -13z"/>
<path d="M675 400 c-3 -5 0 -13 8 -16 23 -8 92 0 92 11 0 14 -92 19 -100 5z"/>
<path d="M260 340 c0 -6 27 -10 60 -10 33 0 60 4 60 10 0 6 -27 10 -60 10 -33
0 -60 -4 -60 -10z"/>
<path d="M670 340 c0 -5 25 -10 56 -10 34 0 53 4 49 10 -3 6 -28 10 -56 10
-27 0 -49 -4 -49 -10z"/>
<path d="M300 280 c0 -6 33 -10 80 -10 47 0 80 -4 80 -10 0 -5 9 -10 20 -10
11 0 20 5 20 10 0 6 45 10 115 10 70 0 115 4 115 10 0 6 -78 10 -215 10 -137
0 -215 -4 -215 -10z"/>
<path d="M380 220 c0 -6 52 -10 135 -10 83 0 135 4 135 10 0 6 -52 10 -135 10
-83 0 -135 -4 -135 -10z"/>
<path d="M1058 993 l-58 -59 0 -425 c0 -317 3 -428 12 -437 7 -7 44 -12 96
-12 l83 0 60 57 c32 31 59 62 59 70 0 28 16 10 50 -55 l35 -67 88 -3 88 -3 59
57 60 57 0 427 c0 318 -3 429 -12 438 -7 7 -44 12 -97 12 l-85 0 -58 -57 c-32
-32 -58 -63 -58 -70 0 -28 -17 -10 -50 55 l-35 67 -90 3 -90 3 -57 -58z m302
-151 c84 -165 109 -196 131 -160 5 7 9 84 9 171 l0 157 80 0 80 0 -2 -412 -3
-413 -75 0 -75 0 -85 170 c-76 152 -88 170 -110 170 l-25 0 -5 -170 -5 -170
-75 0 -75 0 -3 413 -2 412 77 0 78 0 85 -168z m-310 13 c0 -19 -4 -37 -10 -40
-6 -4 -10 12 -10 40 0 28 4 44 10 40 6 -3 10 -21 10 -40z m30 -60 c0 -19 -4
-35 -10 -35 -11 0 -14 53 -3 63 11 12 13 8 13 -28z m-30 -270 c0 -152 -4 -246
-10 -250 -7 -4 -10 82 -10 250 0 168 3 254 10 250 6 -4 10 -98 10 -250z m30 5
c0 -127 -4 -200 -10 -200 -6 0 -10 73 -10 200 0 127 4 200 10 200 6 0 10 -73
10 -200z m0 -260 c0 -16 -4 -30 -10 -30 -5 0 -10 14 -10 30 0 17 5 30 10 30 6
0 10 -13 10 -30z"/>
<path d="M1150 970 c0 -5 22 -10 49 -10 28 0 53 5 56 10 4 6 -15 10 -49 10
-31 0 -56 -4 -56 -10z"/>
<path d="M1535 970 c3 -5 26 -10 51 -10 24 0 44 5 44 10 0 6 -23 10 -51 10
-31 0 -48 -4 -44 -10z"/>
<path d="M1157 924 c-18 -19 -2 -25 58 -22 36 2 66 8 68 13 2 11 -115 20 -126
9z"/>
<path d="M1530 915 c0 -11 12 -15 50 -15 38 0 50 4 50 15 0 11 -12 15 -50 15
-38 0 -50 -4 -50 -15z"/>
<path d="M1150 860 c0 -6 35 -10 85 -10 50 0 85 4 85 10 0 6 -35 10 -85 10
-50 0 -85 -4 -85 -10z"/>
<path d="M1530 860 c0 -5 23 -10 50 -10 28 0 50 5 50 10 0 6 -22 10 -50 10
-27 0 -50 -4 -50 -10z"/>
<path d="M1150 800 c0 -6 42 -10 106 -10 67 0 103 4 99 10 -3 6 -50 10 -106
10 -59 0 -99 -4 -99 -10z"/>
<path d="M1530 800 c0 -5 23 -10 50 -10 28 0 50 5 50 10 0 6 -22 10 -50 10
-27 0 -50 -4 -50 -10z"/>
<path d="M1150 740 c0 -6 47 -10 120 -10 73 0 120 4 120 10 0 6 -47 10 -120
10 -73 0 -120 -4 -120 -10z"/>
<path d="M1530 740 c0 -5 23 -10 50 -10 28 0 50 5 50 10 0 6 -22 10 -50 10
-27 0 -50 -4 -50 -10z"/>
<path d="M1530 685 c0 -11 12 -15 50 -15 38 0 50 4 50 15 0 11 -12 15 -50 15
-38 0 -50 -4 -50 -15z"/>
<path d="M1150 680 c0 -6 52 -10 135 -10 83 0 135 4 135 10 0 6 -52 10 -135
10 -83 0 -135 -4 -135 -10z"/>
<path d="M1145 620 c4 -6 97 -10 245 -10 148 0 241 4 245 10 4 7 -80 10 -245
10 -165 0 -249 -3 -245 -10z"/>
<path d="M1147 574 c-19 -20 26 -24 244 -24 206 0 239 2 239 15 0 13 -33 15
-238 15 -131 0 -242 -3 -245 -6z"/>
<path d="M1150 510 c0 -5 25 -10 56 -10 34 0 53 4 49 10 -3 6 -28 10 -56 10
-27 0 -49 -4 -49 -10z"/>
<path d="M1380 510 c0 -6 48 -10 125 -10 77 0 125 4 125 10 0 6 -48 10 -125
10 -77 0 -125 -4 -125 -10z"/>
<path d="M1150 450 c0 -5 23 -10 50 -10 28 0 50 5 50 10 0 6 -22 10 -50 10
-27 0 -50 -4 -50 -10z"/>
<path d="M1410 450 c0 -6 43 -10 110 -10 67 0 110 4 110 10 0 6 -43 10 -110
10 -67 0 -110 -4 -110 -10z"/>
<path d="M1447 404 c-19 -19 1 -24 89 -24 72 0 95 3 92 13 -5 13 -168 23 -181
11z"/>
<path d="M1150 390 c0 -5 23 -10 50 -10 28 0 50 5 50 10 0 6 -22 10 -50 10
-27 0 -50 -4 -50 -10z"/>
<path d="M1471 341 c-12 -8 -10 -11 10 -16 36 -9 139 -2 142 10 3 13 -133 18
-152 6z"/>
<path d="M1150 330 c0 -5 22 -10 49 -10 28 0 53 5 56 10 4 6 -15 10 -49 10
-31 0 -56 -4 -56 -10z"/>
<path d="M1157 284 c-13 -13 5 -24 38 -24 41 0 67 9 59 21 -6 10 -87 12 -97 3z"/>
<path d="M1500 280 c0 -6 28 -10 65 -10 37 0 65 4 65 10 0 6 -28 10 -65 10
-37 0 -65 -4 -65 -10z"/>
<path d="M1150 220 c0 -5 23 -10 50 -10 28 0 50 5 50 10 0 6 -22 10 -50 10
-27 0 -50 -4 -50 -10z"/>
<path d="M1520 220 c0 -5 25 -10 55 -10 30 0 55 5 55 10 0 6 -25 10 -55 10
-30 0 -55 -4 -55 -10z"/>
</g>
</svg>
